<svg viewBox="0 0 651 192"  width="651" height="192" xmlns="http://www.w3.org/2000/svg" fill="none" class="h-16 w-auto text-gray-700 sm:h-20">
 <g>
  <title>Layer 1</title>
  <g clip-path="url(#clip0)" fill="#EF3B2D" id="svg_1">
   <path fill="#f23535" d="m186.068,43.892c-0.024,-0.088 -0.073,-0.165 -0.104,-0.25c-0.481,-0.842 -0.555,-0.967 -0.659,-1.07c-0.085,-0.086 -0.194,-0.148 -0.29,-0.223c-0.109,-0.085 -0.206,-0.182 -0.327,-0.252l-0.002,-0.001l-0.002,-0.002l-35.648,-20.524a2.971,2.971 0 0 0 -2.964,0l-35.647,20.522l-0.002,0.002l-0.002,0.001c-0.121,0.07 -0.219,0.167 -0.327,0.252c-0.096,0.075 -0.205,0.138 -0.29,0.223c-0.103,0.103 -0.178,0.228 -0.265,0.345c-0.066,0.089 -0.147,0.169 -0.203,0.265c-0.083,0.144 -0.133,0.304 -0.191,0.46c-0.031,0.085 -0.08,0.162 -0.104,0.25c-0.067,0.249 -0.103,0.51 -0.103,0.776l0,38.979l-29.706,17.103l0,-76.255a3,3 0 0 0 -0.103,-0.776c-0.024,-0.088 -0.073,-0.165 -0.104,-0.25c-0.058,-0.157 -0.108,-0.316 -0.191,-0.46c-0.056,-0.097 -0.137,-0.176 -0.203,-0.265c-0.087,-0.117 -0.161,-0.242 -0.265,-0.345c-0.085,-0.086 -0.194,-0.148 -0.29,-0.223c-0.109,-0.085 -0.206,-0.182 -0.327,-0.252l-0.002,-0.001l-0.002,-0.002l-35.647,-20.523a2.971,2.971 0 0 0 -2.964,0l-35.647,20.523l-0.002,0.002l-0.002,0.001c-0.121,0.07 -0.219,0.167 -0.327,0.252c-0.096,0.075 -0.205,0.138 -0.29,0.223c-0.103,0.103 -0.178,0.228 -0.265,0.345c-0.066,0.089 -0.147,0.169 -0.203,0.265c-0.083,0.144 -0.133,0.304 -0.191,0.46c-0.031,0.085 -0.08,0.162 -0.104,0.25c-0.067,0.249 -0.103,0.51 -0.103,0.776l0,122.09c0,1.063 0.568,2.044 1.489,2.575l71.293,41.045c0.156,0.089 0.324,0.143 0.49,0.202c0.078,0.028 0.15,0.074 0.23,0.095a2.98,2.98 0 0 0 1.524,0c0.069,-0.018 0.132,-0.059 0.2,-0.083c0.176,-0.061 0.354,-0.119 0.519,-0.214l71.293,-41.045a2.971,2.971 0 0 0 1.489,-2.575l0,-38.979l34.158,-19.666a2.971,2.971 0 0 0 1.489,-2.575l0,-40.697a3.075,3.075 0 0 0 -0.106,-0.774zm-109.813,99.275l-29.648,-16.779l31.136,-17.926l0.001,-0.001l34.164,-19.669l29.674,17.084l-21.772,12.428l-43.555,24.863zm68.329,-76.259l0,33.841l-12.475,-7.182l-17.231,-9.92l0,-33.841l12.475,7.182l17.231,9.92zm2.97,-39.335l29.693,17.095l-29.693,17.095l-29.693,-17.095l29.693,-17.095zm-91.494,86.516l-12.475,7.182l0,-74.538l17.231,-9.92l12.475,-7.182l0,74.537l-17.231,9.921zm-15.446,-106.691l29.693,17.095l-29.693,17.095l-29.693,-17.095l29.693,-17.095zm-32.676,22.234l12.475,7.182l17.231,9.92l0,79.676l0.001,0.005l-0.001,0.006c0,0.114 0.032,0.221 0.045,0.333c0.017,0.146 0.021,0.294 0.059,0.434l0.002,0.007c0.032,0.117 0.094,0.222 0.14,0.334c0.051,0.124 0.088,0.255 0.156,0.371a0.036,0.036 0 0 0 0.004,0.009c0.061,0.105 0.149,0.191 0.222,0.288c0.081,0.105 0.149,0.22 0.244,0.314l0.008,0.01c0.084,0.083 0.19,0.142 0.284,0.215c0.106,0.083 0.202,0.178 0.32,0.247l0.013,0.005l0.011,0.008l34.139,19.321l0,34.175l-65.352,-37.625l0,-115.235l-0.001,0zm136.646,115.235l-65.352,37.625l0,-34.182l48.399,-27.628l16.953,-9.677l0,33.862zm35.646,-61.22l-29.706,17.102l0,-33.841l17.231,-9.92l12.475,-7.182l0,33.841z" id="svg_2"/>
  </g>
  <text x="251.5" y="52" id="svg_3" fill="#000000" stroke-width="0" font-size="24" font-family="Noto Sans JP" text-anchor="start" xml:space="preserve"/>
  <path id="svg_4" d="m215.5,35" opacity="NaN" stroke-width="0" stroke="#000" fill="#f23535"/>
  <path id="svg_6" d="m216.5,36" opacity="NaN" stroke-width="0" stroke="#000" fill="#f23535"/>
  <path id="svg_7" d="m217.5,31" opacity="NaN" stroke-width="0" stroke="#000" fill="#f23535"/>
  <path id="svg_8" d="m202.5,52l-9.5,101" opacity="NaN" stroke-width="0" stroke="#000" fill="#f23535"/>
  <path id="svg_10" d="m228.5,39" opacity="NaN" stroke-width="0" stroke="#000" fill="#f23535"/>
  <path stroke="#000" id="svg_13" d="m220.39714,145.69357l-0.39714,-96.69357l24.62246,0l27.00528,76.13667c0.39714,0 24.22533,-75.3753 24.22533,-74.61394c0,0.76137 24.63527,0 24.22533,0c0.40994,0 0.39714,96.70566 0,96.69357c0,0.01873 -22.64959,0 -23.03392,0c0.38321,0 0.39714,-60.14797 0,-60.14797c0.39714,0 -23.43105,64.71617 -23.82819,64.71617c0.39714,0 -31.37378,-63.19344 -31.77092,-63.19344c0.39714,0 0.39714,55.58498 0,55.57977c0,0.01173 -13.50264,-4.47862 -21.04823,1.52273z" opacity="NaN" stroke-width="0" fill="#f23535"/>
  <path stroke="#00bf5f" id="svg_19" d="m325.71751,98.2297l0,0c0,-25.42184 20.81877,-46.03032 46.50001,-46.03032l0,0c12.33256,0 24.16003,4.84961 32.88047,13.48196c8.72045,8.63236 13.61954,20.34035 13.61954,32.54835l0,0c0,25.42184 -20.81877,46.03032 -46.50001,46.03032l0,0c-25.68124,0 -46.50001,-20.60848 -46.50001,-46.03032zm23.25,0l0,0c0,12.71092 10.40939,23.01516 23.25,23.01516c12.84062,0 23.25,-10.30424 23.25,-23.01516c0,-12.71092 -10.40939,-23.01516 -23.25,-23.01516l0,0c-12.84062,0 -23.25,10.30424 -23.25,23.01516z" stroke-dasharray="2,2" stroke-width="0" fill="#f23535"/>
  <path stroke="#00bf5f" id="svg_20" d="m503.09748,54.30698l72.99998,0l0,22l-72.99998,0l0,-22z" stroke-dasharray="2,2" stroke-width="0" fill="#f23535"/>
  <rect stroke="#00bf5f" id="svg_21" height="67" width="17" y="80" x="503.5" stroke-dasharray="2,2" stroke-width="0" fill="#f23535"/>
  <rect id="svg_22" height="19" width="48" y="93" x="524.5" stroke-dasharray="2,2" stroke-width="0" stroke="#00bf5f" fill="#f23535"/>
  <rect id="svg_24" height="21" width="47" y="125" x="526.5" stroke-dasharray="2,2" stroke-width="0" stroke="#00bf5f" fill="#f23535"/>
  <path stroke="#00bf5f" id="svg_26" d="m455,144l16,0" opacity="NaN" stroke-dasharray="2,2" stroke-width="0" fill="#f23535"/>
  <path id="svg_27" d="m472.5,54" opacity="NaN" stroke-dasharray="2,2" stroke-width="0" stroke="#00bf5f" fill="#f23535"/>
  <path id="svg_28" d="m435.5,145" opacity="NaN" stroke-dasharray="2,2" stroke-width="0" stroke="#00bf5f" fill="#f23535"/>
  <path id="svg_31" d="m422.5,52" opacity="NaN" stroke-dasharray="2,2" stroke-width="0" stroke="#00bf5f" fill="#f23535"/>
  <path id="svg_33" d="m518.5,118l-3.5,42" opacity="NaN" stroke-dasharray="2,2" stroke-width="0" stroke="#00bf5f" fill="#f23535"/>
  <path stroke="#00bf5f" id="svg_35" d="m424.51389,146.43333l-0.51389,-92.43333l14.38889,0l43.16667,84.6l0,-82.25l16.44444,0l0,91.65l-21.58333,0l-39.05555,-73.63333l0,70.5" opacity="NaN" stroke-dasharray="2,2" stroke-width="0" fill="#f23535"/>
  <path id="svg_37" d="m590.5,104" opacity="NaN" stroke-width="0" stroke="#000" fill="#f23535"/>
  <path stroke="#000" id="svg_39" d="m579.5,56.97778l29.468,49.44444l0,37.57778l15.568,0l0,-38.56666l24.464,-48.45555l-16.68,0l-16.68,33.62222l-21.128,-35.6l-15.012,1.97778z" opacity="NaN" stroke-width="0" fill="#f23535"/>
 </g>

</svg>